<svg xmlns="http://www.w3.org/2000/svg" width="800" height="600" viewBox="0 0 800 600">
  <!-- 深蓝色背景 -->
  <rect width="800" height="600" fill="#0A192F"/>
  <!-- 星星图案 -->
  <g fill="#FFFFFF">
    <!-- 大星星 (4x4像素) -->
    <rect x="50" y="80" width="4" height="4"/>
    <rect x="120" y="150" width="4" height="4"/>
    <rect x="200" y="60" width="4" height="4"/>
    <rect x="300" y="200" width="4" height="4"/>
    <rect x="450" y="120" width="4" height="4"/>
    <rect x="550" y="80" width="4" height="4"/>
    <rect x="650" y="180" width="4" height="4"/>
    <rect x="700" y="50" width="4" height="4"/>
    <!-- 中等星星 (2x2像素) -->
    <rect x="80" y="120" width="2" height="2"/>
    <rect x="150" y="90" width="2" height="2"/>
    <rect x="250" y="150" width="2" height="2"/>
    <rect x="350" y="80" width="2" height="2"/>
    <rect x="400" y="160" width="2" height="2"/>
    <rect x="500" y="220" width="2" height="2"/>
    <rect x="600" y="140" width="2" height="2"/>
    <rect x="750" y="110" width="2" height="2"/>
    <!-- 小星星 (1x1像素) -->
    <rect x="60" y="60" width="1" height="1"/>
    <rect x="100" y="180" width="1" height="1"/>
    <rect x="180" y="120" width="1" height="1"/>
    <rect x="220" y="90" width="1" height="1"/>
    <rect x="280" y="170" width="1" height="1"/>
    <rect x="320" y="50" width="1" height="1"/>
    <rect x="380" y="190" width="1" height="1"/>
    <rect x="420" y="70" width="1" height="1"/>
    <rect x="480" y="130" width="1" height="1"/>
    <rect x="520" y="190" width="1" height="1"/>
    <rect x="580" y="60" width="1" height="1"/>
    <rect x="620" y="210" width="1" height="1"/>
    <rect x="680" y="100" width="1" height="1"/>
    <rect x="720" y="160" width="1" height="1"/>
    <rect x="780" y="80" width="1" height="1"/>
  </g>
  <!-- 底部波浪 -->
  <path d="M0,450 Q200,400 400,450 T800,450 L800,600 L0,600 Z" fill="#64FFDA" opacity="0.5"/>
</svg>